<?xml version="1.0" standalone="no"?><!DOCTYPE svg PUBLIC "-//W3C//DTD SVG 1.1//EN" "http://www.w3.org/Graphics/SVG/1.1/DTD/svg11.dtd"><svg t="1673002945107" class="icon" viewBox="0 0 1024 1024" version="1.1" xmlns="http://www.w3.org/2000/svg" p-id="1596" xmlns:xlink="http://www.w3.org/1999/xlink" width="64" height="64"><path d="M708.778667 725.333333H358.229333C325.333333 725.333333 298.666667 696.149333 298.666667 661.333333c0-35.2 26.666667-64 59.562666-64h350.549334c32.554667 0 59.221333 28.8 59.221333 64 0 34.816-26.666667 64-59.221333 64M359.68 298.666667h176.64c33.706667 0 61.013333 28.714667 61.013333 63.829333S570.026667 426.666667 536.32 426.666667H359.68C325.973333 426.666667 298.666667 397.610667 298.666667 362.496S325.973333 298.666667 359.68 298.666667m639.274667 107.178666c-20.693333-8.490667-109.568 0.938667-134.229334-20.394666-17.450667-15.36-18.56-43.178667-25.344-80.298667-11.392-62.122667-16.128-76.202667-27.989333-100.693333C768.298667 117.333333 665.045333 42.666667 571.178667 42.666667H353.621333C182.528 42.666667 42.666667 176.298667 42.666667 339.328v345.941333C42.666667 848.042667 182.485333 981.333333 353.621333 981.333333h357.418667c171.093333 0 310.016-133.290667 310.997333-296.064L1024 445.696s0-29.653333-25.045333-39.850667" fill="#FF6500" p-id="1597"></path></svg>