<svg t="1677154365193" class="icon" viewBox="0 0 1024 1024" version="1.1" xmlns="http://www.w3.org/2000/svg" p-id="3726" xmlns:xlink="http://www.w3.org/1999/xlink" width="20" height="20"><path d="M512 128c-110.506667 0-192 42.666667-192 149.333333 0 269.013333-1.493333 554.666667-1.493333 554.666667h386.986666S704 632.746667 704 277.333333c0-106.666667-81.493333-149.333333-192-149.333333z" fill="#5D4037" p-id="3727"></path><path d="M748.8 384c-6.613333 24.746667-18.773333 43.733333-50.346667 43.733333-35.413333 0-40.106667-27.946667-40.106666-61.44 0-60.16 93.226667-110.293333 130.986666-110.293333 0 91.733333-32.853333 98.56-40.533333 128z" fill="#42A5F5" p-id="3728"></path><path d="M698.453333 426.666667c-35.413333 0-40.106667-27.946667-40.106666-61.44 0-59.093333 93.226667-109.226667 130.986666-109.226667-64 73.173333-59.306667 170.666667-90.88 170.666667z" fill="#1E88E5" p-id="3729"></path><path d="M272.213333 384c6.613333 24.746667 18.773333 43.733333 50.346667 43.733333C357.973333 426.666667 362.666667 398.72 362.666667 365.226667c0-59.093333-93.226667-109.226667-130.986667-109.226667 0 91.733333 32.853333 98.56 40.533333 128z" fill="#42A5F5" p-id="3730"></path><path d="M322.56 426.666667c35.413333 0 40.106667-27.946667 40.106667-61.44 0-59.093333-93.226667-109.226667-130.986667-109.226667 64 73.173333 59.306667 170.666667 90.88 170.666667z" fill="#1E88E5" p-id="3731"></path><path d="M234.666667 791.893333c29.866667-40.746667 192-87.893333 192-87.893333h170.666666s162.56 47.146667 192 87.893333A286.506667 286.506667 0 0 1 832 917.333333H192a286.506667 286.506667 0 0 1 42.666667-125.44z" fill="#42A5F5" p-id="3732"></path><path d="M426.666667 522.666667v192c0 64 85.333333 64 85.333333 64s85.333333 0 85.333333-64v-192z" fill="#1E88E5" p-id="3733"></path><path d="M512 106.666667c-188.373333 0-192 149.333333-192 229.333333C320 533.333333 413.44 640 512 640s192-106.666667 192-304C704 256 700.373333 106.666667 512 106.666667z" fill="#42A5F5" p-id="3734"></path><path d="M512 106.666667c-188.373333 0-213.333333 128-213.333333 208 0 50.773333 54.826667 69.333333 128 69.333333 26.453333 0 53.333333 35.413333 53.333333 64v76.8a64 64 0 0 0 64 0V448c0-28.586667 26.88-64 53.333333-64 73.173333 0 128-18.56 128-69.333333C725.333333 234.666667 700.373333 106.666667 512 106.666667z" fill="#66B6F7" p-id="3735"></path><path d="M480 524.8a64 64 0 0 0 64 0S530.986667 554.666667 512 554.666667s-32-29.866667-32-29.866667z" fill="#1E88E5" p-id="3736"></path><path d="M640 405.333333a42.666667 42.666667 0 0 1-85.333333 0 66.773333 66.773333 0 0 1 42.666666-21.333333 66.773333 66.773333 0 0 1 42.666667 21.333333z" fill="#FFC107" p-id="3737"></path><path d="M597.333333 405.333333m-21.333333 0a21.333333 21.333333 0 1 0 42.666667 0 21.333333 21.333333 0 1 0-42.666667 0Z" fill="#263238" p-id="3738"></path><path d="M469.333333 405.333333a42.666667 42.666667 0 0 1-85.333333 0 66.773333 66.773333 0 0 1 42.666667-21.333333 66.773333 66.773333 0 0 1 42.666666 21.333333z" fill="#FFC107" p-id="3739"></path><path d="M426.666667 405.333333m-21.333334 0a21.333333 21.333333 0 1 0 42.666667 0 21.333333 21.333333 0 1 0-42.666667 0Z" fill="#263238" p-id="3740"></path><path d="M508.16 164.906667c-1.493333 66.986667-68.266667 64-72.746667 192L405.333333 353.92c8.533333-69.973333 90.453333-149.333333 88.32-194.56s16-61.44 14.506667 5.546667zM450.56 138.026667c0 81.92-104.746667 142.933333-120.746667 227.413333a119.466667 119.466667 0 0 0 23.68 9.813333c22.4-134.613333 114.56-150.613333 115.626667-232.106666a174.72 174.72 0 0 0-2.346667-33.28c-4.48 0-9.173333 0-13.653333 1.92a122.026667 122.026667 0 0 0-2.56 26.24z" fill="#90CAF9" p-id="3741"></path><path d="M410.88 143.146667c-9.386667 61.44-56.746667 83.2-90.24 119.253333-14.506667 15.786667-17.706667 76.586667-8.746667 79.146667 21.333333-123.093333 116.053333-116.48 117.12-197.973334 0.213333-15.573333-16.64-10.88-18.133333-0.426666zM515.84 164.906667c1.493333 66.986667 68.266667 64 72.746667 192l30.08-2.986667c-8.533333-69.973333-90.453333-149.333333-88.32-194.56s-16-61.44-14.506667 5.546667zM573.44 138.026667c0 81.92 104.746667 142.933333 120.746667 227.413333a119.466667 119.466667 0 0 1-23.68 9.813333c-22.4-134.613333-114.56-150.613333-115.84-232.106666a174.72 174.72 0 0 1 2.346666-33.28c4.48 0 9.173333 0 13.653334 1.92a122.026667 122.026667 0 0 1 2.773333 26.24z" fill="#90CAF9" p-id="3742"></path><path d="M613.12 143.146667c10.026667 65.493333 64 85.333333 96.64 126.72 11.52 14.08 11.306667 69.12 2.346667 71.68-21.333333-123.093333-116.053333-116.48-117.12-197.973334-0.213333-15.573333 16.64-10.88 18.133333-0.426666z" fill="#90CAF9" p-id="3743"></path><path d="M672 349.866667a350.933333 350.933333 0 0 1-74.666667 12.8h-42.666666a55.466667 55.466667 0 0 1 42.666666-21.333334 375.893333 375.893333 0 0 1 74.666667 8.533334zM352 349.866667a350.933333 350.933333 0 0 0 74.666667 12.8h42.666666a55.466667 55.466667 0 0 0-42.666666-21.333334 375.893333 375.893333 0 0 0-74.666667 8.533334z" fill="#37474F" p-id="3744"></path><path d="M512 223.786667a888.746667 888.746667 0 0 0-12.373333 116.266666 740.906667 740.906667 0 0 0 12.373333 123.946667 740.906667 740.906667 0 0 0 12.373333-123.946667 845.653333 845.653333 0 0 0-12.373333-116.266666z" fill="#90CAF9" p-id="3745"></path><path d="M772.906667 776.32a265.813333 265.813333 0 0 0-27.733334-16.213333c-8.106667 42.666667-55.04 96.426667-179.84 125.226666 63.573333 0 165.333333-23.466667 207.573334-109.013333zM694.613333 737.493333c-11.946667-4.48-22.4-8.746667-33.28-12.16s-32 96-117.333333 117.333334c0 0 113.066667-8.96 150.613333-105.173334zM251.093333 776.32a265.813333 265.813333 0 0 1 27.733334-16.213333c8.106667 42.666667 55.04 96.426667 179.84 125.226666-63.573333 0-165.333333-23.466667-207.573334-109.013333zM329.386667 737.493333c11.306667-4.48 21.333333-8.746667 33.066666-12.586666s32 96 117.333334 117.333333c0.213333 0.426667-112.853333-8.533333-150.4-104.746667zM576 469.333333a234.666667 234.666667 0 0 0 118.4-30.506666c2.986667-15.36 5.12-31.36 6.826667-48.213334C677.546667 422.186667 632.746667 469.333333 576 469.333333zM618.666667 512a345.813333 345.813333 0 0 0 57.173333-9.6c3.413333-8.533333 6.4-17.493333 9.173333-26.666667A250.24 250.24 0 0 1 618.666667 512zM322.773333 390.613333c1.706667 16.853333 3.84 32.853333 6.826667 48.213334A234.666667 234.666667 0 0 0 448 469.333333c-56.746667 0-101.546667-47.146667-125.226667-78.72zM348.16 502.4A345.813333 345.813333 0 0 0 405.333333 512a250.24 250.24 0 0 1-66.346666-36.266667c2.346667 9.173333 5.76 18.133333 9.173333 26.666667z" fill="#1E88E5" p-id="3746"></path><path d="M512 192l-192 42.666667v42.666666a1202.773333 1202.773333 0 0 1 149.333333-21.333333c42.666667 0 21.333333 21.333333 21.333334 42.666667a214.826667 214.826667 0 0 0 21.333333 64 214.826667 214.826667 0 0 0 21.333333-64c0-21.333333-21.333333-42.666667 21.333334-42.666667a1202.773333 1202.773333 0 0 1 149.333333 21.333333v-42.666666z" fill="#FF6F00" p-id="3747"></path><path d="M512 64c-146.133333 0-213.333333 106.666667-213.333333 213.333333v640h21.333333s21.333333-523.093333 21.333333-576c0-213.333333 64-192 170.666667-192s170.666667-21.333333 170.666667 192c0 82.986667 21.333333 576 21.333333 576h21.333333V277.333333c0-106.666667-67.2-213.333333-213.333333-213.333333z" fill="#795548" p-id="3748"></path><path d="M448 567.466667a244.266667 244.266667 0 0 0 128 0 93.653333 93.653333 0 0 1-64 29.866666 93.653333 93.653333 0 0 1-64-29.866666z" fill="#1976D2" p-id="3749"></path><path d="M480 181.333333m-5.333333 0a5.333333 5.333333 0 1 0 10.666666 0 5.333333 5.333333 0 1 0-10.666666 0Z" fill="#E3F2FD" p-id="3750"></path><path d="M480 330.666667m-5.333333 0a5.333333 5.333333 0 1 0 10.666666 0 5.333333 5.333333 0 1 0-10.666666 0Z" fill="#E3F2FD" p-id="3751"></path><path d="M480 266.666667m-5.333333 0a5.333333 5.333333 0 1 0 10.666666 0 5.333333 5.333333 0 1 0-10.666666 0Z" fill="#E3F2FD" p-id="3752"></path><path d="M416 288m-5.333333 0a5.333333 5.333333 0 1 0 10.666666 0 5.333333 5.333333 0 1 0-10.666666 0Z" fill="#E3F2FD" p-id="3753"></path><path d="M394.666667 330.666667m-5.333334 0a5.333333 5.333333 0 1 0 10.666667 0 5.333333 5.333333 0 1 0-10.666667 0Z" fill="#E3F2FD" p-id="3754"></path><path d="M352 394.666667m-5.333333 0a5.333333 5.333333 0 1 0 10.666666 0 5.333333 5.333333 0 1 0-10.666666 0Z" fill="#E3F2FD" p-id="3755"></path><path d="M373.333333 437.333333m-5.333333 0a5.333333 5.333333 0 1 0 10.666667 0 5.333333 5.333333 0 1 0-10.666667 0Z" fill="#E3F2FD" p-id="3756"></path><path d="M458.666667 458.666667m-5.333334 0a5.333333 5.333333 0 1 0 10.666667 0 5.333333 5.333333 0 1 0-10.666667 0Z" fill="#E3F2FD" p-id="3757"></path><path d="M480 394.666667m-5.333333 0a5.333333 5.333333 0 1 0 10.666666 0 5.333333 5.333333 0 1 0-10.666666 0Z" fill="#E3F2FD" p-id="3758"></path><path d="M352 288m-5.333333 0a5.333333 5.333333 0 1 0 10.666666 0 5.333333 5.333333 0 1 0-10.666666 0Z" fill="#E3F2FD" p-id="3759"></path><path d="M544 181.333333m-5.333333 0a5.333333 5.333333 0 1 0 10.666666 0 5.333333 5.333333 0 1 0-10.666666 0Z" fill="#E3F2FD" p-id="3760"></path><path d="M544 330.666667m-5.333333 0a5.333333 5.333333 0 1 0 10.666666 0 5.333333 5.333333 0 1 0-10.666666 0Z" fill="#E3F2FD" p-id="3761"></path><path d="M544 266.666667m-5.333333 0a5.333333 5.333333 0 1 0 10.666666 0 5.333333 5.333333 0 1 0-10.666666 0Z" fill="#E3F2FD" p-id="3762"></path><path d="M608 288m-5.333333 0a5.333333 5.333333 0 1 0 10.666666 0 5.333333 5.333333 0 1 0-10.666666 0Z" fill="#E3F2FD" p-id="3763"></path><path d="M629.333333 330.666667m-5.333333 0a5.333333 5.333333 0 1 0 10.666667 0 5.333333 5.333333 0 1 0-10.666667 0Z" fill="#E3F2FD" p-id="3764"></path><path d="M672 394.666667m-5.333333 0a5.333333 5.333333 0 1 0 10.666666 0 5.333333 5.333333 0 1 0-10.666666 0Z" fill="#E3F2FD" p-id="3765"></path><path d="M650.666667 437.333333m-5.333334 0a5.333333 5.333333 0 1 0 10.666667 0 5.333333 5.333333 0 1 0-10.666667 0Z" fill="#E3F2FD" p-id="3766"></path><path d="M565.333333 458.666667m-5.333333 0a5.333333 5.333333 0 1 0 10.666667 0 5.333333 5.333333 0 1 0-10.666667 0Z" fill="#E3F2FD" p-id="3767"></path><path d="M544 394.666667m-5.333333 0a5.333333 5.333333 0 1 0 10.666666 0 5.333333 5.333333 0 1 0-10.666666 0Z" fill="#E3F2FD" p-id="3768"></path><path d="M672 288m-5.333333 0a5.333333 5.333333 0 1 0 10.666666 0 5.333333 5.333333 0 1 0-10.666666 0Z" fill="#E3F2FD" p-id="3769"></path></svg>