<svg t="1677154347976" class="icon" viewBox="0 0 1024 1024" version="1.1" xmlns="http://www.w3.org/2000/svg" p-id="3521" xmlns:xlink="http://www.w3.org/1999/xlink" width="20" height="20"><path d="M512 128c-109.653333 0-190.506667 42.666667-190.506667 149.333333 0 269.013333-1.493333 554.666667-1.493333 554.666667a2760.96 2760.96 0 0 0 43.946667-490.666667c0-213.333333 68.053333-106.666667 148.053333-106.666666s148.053333-85.333333 148.053333 128A2209.28 2209.28 0 0 0 704 832s-1.493333-199.253333-1.493333-554.666667c0-106.666667-80.853333-149.333333-190.506667-149.333333z" fill="#795548" p-id="3522"></path><path d="M512 128c-109.226667 0-126.506667 42.666667-126.506667 149.333333 0 269.013333-1.493333 554.666667-1.493333 554.666667a2773.333333 2773.333333 0 0 0 43.733333-490.666667c0-213.333333 4.693333-106.666667 84.266667-106.666666s85.333333-85.333333 85.333333 128a2218.666667 2218.666667 0 0 0 42.666667 469.333333s-1.493333-199.253333-1.493333-554.666667c0-106.666667-17.28-149.333333-126.506667-149.333333z" fill="#795548" p-id="3523"></path><path d="M770.133333 367.146667A47.146667 47.146667 0 0 1 719.786667 405.333333c-35.413333 0-40.106667-24.533333-40.106667-53.76 0-51.84 93.226667-95.573333 130.986667-95.573333 0 80.213333-32.853333 86.4-40.533334 111.146667z" fill="#42A5F5" p-id="3524"></path><path d="M719.786667 405.333333c-35.413333 0-40.106667-24.533333-40.106667-53.76 0-51.84 93.226667-95.573333 130.986667-95.573333-64 64-59.306667 149.333333-90.88 149.333333z" fill="#1E88E5" p-id="3525"></path><path d="M250.88 367.146667A47.146667 47.146667 0 0 0 301.226667 405.333333c35.413333 0 40.106667-24.533333 40.106666-53.76C341.333333 299.733333 248.106667 256 210.346667 256c0 80.213333 32.853333 86.4 40.533333 111.146667z" fill="#42A5F5" p-id="3526"></path><path d="M301.226667 405.333333c35.413333 0 40.106667-24.533333 40.106666-53.76C341.333333 299.733333 248.106667 256 210.346667 256c64 64 59.306667 149.333333 90.88 149.333333z" fill="#1E88E5" p-id="3527"></path><path d="M789.333333 791.893333C759.893333 751.146667 597.333333 704 597.333333 704h-170.666666s-162.56 47.146667-192 87.893333A286.506667 286.506667 0 0 0 192 917.333333h640a286.506667 286.506667 0 0 0-42.666667-125.44z" fill="#42A5F5" p-id="3528"></path><path d="M426.666667 522.666667v192c0 64 85.333333 64 85.333333 64s85.333333 0 85.333333-64v-192z" fill="#1E88E5" p-id="3529"></path><path d="M512 106.666667c-188.373333 0-213.333333 170.666667-213.333333 250.666666C298.666667 554.666667 413.44 661.333333 512 661.333333s213.333333-106.666667 213.333333-304C725.333333 277.333333 700.373333 106.666667 512 106.666667z" fill="#42A5F5" p-id="3530"></path><path d="M512 106.666667c-188.373333 0-213.333333 128-213.333333 208 0 50.773333 54.826667 69.333333 128 69.333333 26.453333 0 42.666667 35.413333 42.666666 64v79.146667a180.48 180.48 0 0 0 42.666667 6.186666 180.48 180.48 0 0 0 42.666667-6.186666V448c0-28.586667 16.213333-64 42.666666-64 73.173333 0 128-18.56 128-69.333333C725.333333 234.666667 700.373333 106.666667 512 106.666667z" fill="#66B6F7" p-id="3531"></path><path d="M448 567.466667a244.266667 244.266667 0 0 0 128 0 93.653333 93.653333 0 0 1-64 29.866666 93.653333 93.653333 0 0 1-64-29.866666z" fill="#1976D2" p-id="3532"></path><path d="M469.333333 524.8a110.933333 110.933333 0 0 0 85.333334 0s-17.28 29.866667-42.666667 29.866667-42.666667-29.866667-42.666667-29.866667z" fill="#1E88E5" p-id="3533"></path><path d="M640 405.333333a42.666667 42.666667 0 0 1-85.333333 0 66.773333 66.773333 0 0 1 42.666666-21.333333 66.773333 66.773333 0 0 1 42.666667 21.333333z" fill="#FFC107" p-id="3534"></path><path d="M597.333333 405.333333m-21.333333 0a21.333333 21.333333 0 1 0 42.666667 0 21.333333 21.333333 0 1 0-42.666667 0Z" fill="#263238" p-id="3535"></path><path d="M469.333333 405.333333a42.666667 42.666667 0 0 1-85.333333 0 66.773333 66.773333 0 0 1 42.666667-21.333333 66.773333 66.773333 0 0 1 42.666666 21.333333z" fill="#FFC107" p-id="3536"></path><path d="M426.666667 405.333333m-21.333334 0a21.333333 21.333333 0 1 0 42.666667 0 21.333333 21.333333 0 1 0-42.666667 0Z" fill="#263238" p-id="3537"></path><path d="M508.16 164.906667c-1.493333 66.986667-68.266667 64-72.746667 192L405.333333 353.92c8.533333-69.973333 90.453333-149.333333 88.32-194.56s16-61.44 14.506667 5.546667zM450.56 138.026667c0 81.92-104.746667 142.933333-120.746667 227.413333a119.466667 119.466667 0 0 0 23.68 9.813333c22.4-134.613333 114.56-150.613333 115.626667-232.106666a174.72 174.72 0 0 0-2.346667-33.28c-4.48 0-9.173333 0-13.653333 1.92a122.026667 122.026667 0 0 0-2.56 26.24z" fill="#90CAF9" p-id="3538"></path><path d="M410.88 143.146667c-13.44 88.32-106.666667 94.72-121.6 179.2 7.04 4.053333 13.653333 16.64 22.613333 19.2 21.333333-123.093333 116.053333-116.48 117.12-197.973334 0.213333-15.573333-16.64-10.88-18.133333-0.426666zM515.84 164.906667c1.493333 66.986667 68.266667 64 72.746667 192l30.08-2.986667c-8.533333-69.973333-90.453333-149.333333-88.32-194.56s-16-61.44-14.506667 5.546667zM573.44 138.026667c0 81.92 104.746667 142.933333 120.746667 227.413333a119.466667 119.466667 0 0 1-23.68 9.813333c-22.4-134.613333-114.56-150.613333-115.84-232.106666a174.72 174.72 0 0 1 2.346666-33.28c4.48 0 9.173333 0 13.653334 1.92a122.026667 122.026667 0 0 1 2.773333 26.24z" fill="#90CAF9" p-id="3539"></path><path d="M613.12 143.146667c13.44 88.32 105.6 94.72 121.6 179.2-7.04 4.053333-13.653333 16.64-22.613333 19.2-21.333333-123.093333-116.053333-116.48-117.12-197.973334-0.213333-15.573333 16.64-10.88 18.133333-0.426666z" fill="#90CAF9" p-id="3540"></path><path d="M672 349.866667a350.933333 350.933333 0 0 1-74.666667 12.8h-42.666666a55.466667 55.466667 0 0 1 42.666666-21.333334 375.893333 375.893333 0 0 1 74.666667 8.533334zM352 349.866667a350.933333 350.933333 0 0 0 74.666667 12.8h42.666666a55.466667 55.466667 0 0 0-42.666666-21.333334 375.893333 375.893333 0 0 0-74.666667 8.533334z" fill="#37474F" p-id="3541"></path><path d="M512 159.786667s-12.373333 114.346667-12.373333 158.933333a740.906667 740.906667 0 0 0 12.373333 123.946667 740.906667 740.906667 0 0 0 12.373333-123.946667c0-46.506667-12.373333-158.933333-12.373333-158.933333z" fill="#90CAF9" p-id="3542"></path><path d="M772.906667 776.32a265.813333 265.813333 0 0 0-27.733334-16.213333c-8.106667 42.666667-55.04 96.426667-179.84 125.226666 63.573333 0 165.333333-23.466667 207.573334-109.013333zM694.613333 737.493333c-11.946667-4.48-22.4-8.746667-33.28-12.16s-32 96-117.333333 117.333334c0 0 113.066667-8.96 150.613333-105.173334zM251.093333 776.32a265.813333 265.813333 0 0 1 27.733334-16.213333c8.106667 42.666667 55.04 96.426667 179.84 125.226666-63.573333 0-165.333333-23.466667-207.573334-109.013333zM329.386667 737.493333c11.306667-4.48 21.333333-8.746667 33.066666-12.586666s32 96 117.333334 117.333333c0.213333 0.426667-112.853333-8.533333-150.4-104.746667zM717.226667 442.24a406.613333 406.613333 0 0 0 5.973333-41.173333c-1.706667-10.026667-3.413333-17.066667-3.413333-17.066667S661.333333 490.666667 576 490.666667c67.626667 0 121.6-26.666667 141.226667-48.426667zM708.48 478.72A289.706667 289.706667 0 0 1 618.666667 533.333333a392.32 392.32 0 0 0 75.306666-14.293333 343.68 343.68 0 0 0 14.506667-40.32zM306.773333 442.24a406.613333 406.613333 0 0 1-5.973333-41.173333c1.706667-10.026667 3.413333-17.066667 3.413333-17.066667S362.666667 490.666667 448 490.666667c-67.626667 0-121.6-26.666667-141.226667-48.426667zM315.52 478.72A289.706667 289.706667 0 0 0 405.333333 533.333333a392.32 392.32 0 0 1-75.306666-14.293333 343.68 343.68 0 0 1-14.506667-40.32z" fill="#1E88E5" p-id="3543"></path><path d="M512 64c-146.133333 0-234.666667 106.666667-234.666667 213.333333a3034.666667 3034.666667 0 0 0 21.333334 320s21.333333-192 21.333333-256c0-213.333333 85.333333-170.666667 192-170.666666s192-42.666667 192 170.666666a2246.186667 2246.186667 0 0 0 21.333333 256 3034.666667 3034.666667 0 0 0 21.333334-320c0-106.666667-88.533333-213.333333-234.666667-213.333333z" fill="#795548" p-id="3544"></path><path d="M458.666667 202.666667m-5.333334 0a5.333333 5.333333 0 1 0 10.666667 0 5.333333 5.333333 0 1 0-10.666667 0Z" fill="#E3F2FD" p-id="3545"></path><path d="M480 330.666667m-5.333333 0a5.333333 5.333333 0 1 0 10.666666 0 5.333333 5.333333 0 1 0-10.666666 0Z" fill="#E3F2FD" p-id="3546"></path><path d="M480 266.666667m-5.333333 0a5.333333 5.333333 0 1 0 10.666666 0 5.333333 5.333333 0 1 0-10.666666 0Z" fill="#E3F2FD" p-id="3547"></path><path d="M373.333333 245.333333m-5.333333 0a5.333333 5.333333 0 1 0 10.666667 0 5.333333 5.333333 0 1 0-10.666667 0Z" fill="#E3F2FD" p-id="3548"></path><path d="M416 266.666667m-5.333333 0a5.333333 5.333333 0 1 0 10.666666 0 5.333333 5.333333 0 1 0-10.666666 0Z" fill="#E3F2FD" p-id="3549"></path><path d="M394.666667 330.666667m-5.333334 0a5.333333 5.333333 0 1 0 10.666667 0 5.333333 5.333333 0 1 0-10.666667 0Z" fill="#E3F2FD" p-id="3550"></path><path d="M352 394.666667m-5.333333 0a5.333333 5.333333 0 1 0 10.666666 0 5.333333 5.333333 0 1 0-10.666666 0Z" fill="#E3F2FD" p-id="3551"></path><path d="M373.333333 437.333333m-5.333333 0a5.333333 5.333333 0 1 0 10.666667 0 5.333333 5.333333 0 1 0-10.666667 0Z" fill="#E3F2FD" p-id="3552"></path><path d="M458.666667 458.666667m-5.333334 0a5.333333 5.333333 0 1 0 10.666667 0 5.333333 5.333333 0 1 0-10.666667 0Z" fill="#E3F2FD" p-id="3553"></path><path d="M480 394.666667m-5.333333 0a5.333333 5.333333 0 1 0 10.666666 0 5.333333 5.333333 0 1 0-10.666666 0Z" fill="#E3F2FD" p-id="3554"></path><path d="M352 288m-5.333333 0a5.333333 5.333333 0 1 0 10.666666 0 5.333333 5.333333 0 1 0-10.666666 0Z" fill="#E3F2FD" p-id="3555"></path><path d="M565.333333 202.666667m-5.333333 0a5.333333 5.333333 0 1 0 10.666667 0 5.333333 5.333333 0 1 0-10.666667 0Z" fill="#E3F2FD" p-id="3556"></path><path d="M544 330.666667m-5.333333 0a5.333333 5.333333 0 1 0 10.666666 0 5.333333 5.333333 0 1 0-10.666666 0Z" fill="#E3F2FD" p-id="3557"></path><path d="M544 266.666667m-5.333333 0a5.333333 5.333333 0 1 0 10.666666 0 5.333333 5.333333 0 1 0-10.666666 0Z" fill="#E3F2FD" p-id="3558"></path><path d="M650.666667 245.333333m-5.333334 0a5.333333 5.333333 0 1 0 10.666667 0 5.333333 5.333333 0 1 0-10.666667 0Z" fill="#E3F2FD" p-id="3559"></path><path d="M608 266.666667m-5.333333 0a5.333333 5.333333 0 1 0 10.666666 0 5.333333 5.333333 0 1 0-10.666666 0Z" fill="#E3F2FD" p-id="3560"></path><path d="M629.333333 330.666667m-5.333333 0a5.333333 5.333333 0 1 0 10.666667 0 5.333333 5.333333 0 1 0-10.666667 0Z" fill="#E3F2FD" p-id="3561"></path><path d="M672 394.666667m-5.333333 0a5.333333 5.333333 0 1 0 10.666666 0 5.333333 5.333333 0 1 0-10.666666 0Z" fill="#E3F2FD" p-id="3562"></path><path d="M650.666667 437.333333m-5.333334 0a5.333333 5.333333 0 1 0 10.666667 0 5.333333 5.333333 0 1 0-10.666667 0Z" fill="#E3F2FD" p-id="3563"></path><path d="M565.333333 458.666667m-5.333333 0a5.333333 5.333333 0 1 0 10.666667 0 5.333333 5.333333 0 1 0-10.666667 0Z" fill="#E3F2FD" p-id="3564"></path><path d="M544 394.666667m-5.333333 0a5.333333 5.333333 0 1 0 10.666666 0 5.333333 5.333333 0 1 0-10.666666 0Z" fill="#E3F2FD" p-id="3565"></path><path d="M672 288m-5.333333 0a5.333333 5.333333 0 1 0 10.666666 0 5.333333 5.333333 0 1 0-10.666666 0Z" fill="#E3F2FD" p-id="3566"></path></svg>