<?xml version="1.0" standalone="no"?><!DOCTYPE svg PUBLIC "-//W3C//DTD SVG 1.1//EN" "http://www.w3.org/Graphics/SVG/1.1/DTD/svg11.dtd"><svg t="1681637115613" class="icon" viewBox="0 0 1024 1024" version="1.1" xmlns="http://www.w3.org/2000/svg" p-id="7427" xmlns:xlink="http://www.w3.org/1999/xlink" width="24" height="24"><path d="M512.128 1024A512 512 0 1 1 512.064 0.064 512 512 0 0 1 512.128 1024zM510.912 165.376a174.336 174.336 0 0 0-173.952 174.656c0 96.512 77.888 174.656 173.952 174.656s174.016-78.144 174.016-174.656a174.4 174.4 0 0 0-174.016-174.656z m146.304 362.816c-40.512 32.128-90.816 65.92-143.552 65.92-53.376 0-104.128-34.112-144.896-67.008-107.392 39.616-155.328 177.856-155.328 240.96h597.312c0-62.592-48.256-199.808-153.536-239.872z" p-id="7428" fill="#bfbfbf"></path></svg>