<?xml version="1.0" standalone="no"?><!DOCTYPE svg PUBLIC "-//W3C//DTD SVG 1.1//EN" "http://www.w3.org/Graphics/SVG/1.1/DTD/svg11.dtd"><svg t="1678427935124" class="icon" viewBox="0 0 1024 1024" version="1.1" xmlns="http://www.w3.org/2000/svg" p-id="9028" xmlns:xlink="http://www.w3.org/1999/xlink" width="20" height="20"><path d="M938.666667 499.2A454.4 454.4 0 0 0 512 213.333333a454.4 454.4 0 0 0-424.106667 284.586667A42.666667 42.666667 0 0 0 85.333333 512a34.56 34.56 0 0 0 2.56 13.226667A454.4 454.4 0 0 0 512 810.666667a454.4 454.4 0 0 0 424.106667-284.586667A34.56 34.56 0 0 0 938.666667 512a39.68 39.68 0 0 0 0-12.8zM512 725.333333a376.32 376.32 0 0 1-338.346667-213.333333 375.04 375.04 0 0 1 676.693334 0A376.32 376.32 0 0 1 512 725.333333z m0-298.666666a85.333333 85.333333 0 1 1-85.333333 85.333333 85.333333 85.333333 0 0 1 85.333333-85.333333m0-85.333334a170.666667 170.666667 0 1 0 170.666667 170.666667 170.666667 170.666667 0 0 0-170.666667-170.666667z" p-id="9029" fill="#1296db"></path></svg>